<svg xmlns="http://www.w3.org/2000/svg" xmlns:xlink="http://www.w3.org/1999/xlink" width="2800" height="2800" viewBox="0 0 2800 2800">
  <defs>
    <linearGradient id="linear-gradient" x1="0.5" y1="1" x2="0.5" gradientUnits="objectBoundingBox">
      <stop offset="0" stop-color="#fff" stop-opacity="0"/>
      <stop offset="1" stop-color="#fff"/>
    </linearGradient>
    <linearGradient id="linear-gradient-2" x1="0.146" y1="0.146" x2="0.854" y2="0.854" gradientUnits="objectBoundingBox">
      <stop offset="0" stop-color="#fff"/>
      <stop offset="0.462" stop-color="#fbc0a2"/>
      <stop offset="0.999" stop-color="#f1594b"/>
    </linearGradient>
    <linearGradient id="linear-gradient-3" x1="0.5" y1="1" x2="0.5" y2="0" xlink:href="#linear-gradient"/>
    <linearGradient id="linear-gradient-4" x1="0.5" y1="1" x2="0.5" y2="0" xlink:href="#linear-gradient"/>
  </defs>
  <g id="moon_spacescape_RF_RMPL-01" data-name="moon spacescape_RF_RMPL-01" transform="translate(-55 -45)">
    <g id="OBJECTS" transform="translate(55 45)">
      <g id="Group_5" data-name="Group 5">
        <path id="Path_1" data-name="Path 1" d="M888.6,141.8a30.13,30.13,0,0,1-30.1-30.1,30.13,30.13,0,0,1-30.1,30.1,30.13,30.13,0,0,1,30.1,30.1A30,30,0,0,1,888.6,141.8Z" fill="#fff"/>
        <path id="Path_2" data-name="Path 2" d="M1448.5,583.4a30.13,30.13,0,0,1-30.1-30.1,30.13,30.13,0,0,1-30.1,30.1,30.13,30.13,0,0,1,30.1,30.1A30.13,30.13,0,0,1,1448.5,583.4Z" fill="#fff"/>
        <path id="Path_3" data-name="Path 3" d="M1853.8,1069a30.13,30.13,0,0,1-30.1-30.1,30.13,30.13,0,0,1-30.1,30.1,30.13,30.13,0,0,1,30.1,30.1A30.13,30.13,0,0,1,1853.8,1069Z" fill="#fff"/>
        <path id="Path_4" data-name="Path 4" d="M2586.7,951.2a30.131,30.131,0,0,1-30.1-30.1,30.131,30.131,0,0,1-30.1,30.1,30.131,30.131,0,0,1,30.1,30.1A30.131,30.131,0,0,1,2586.7,951.2Z" fill="#fff"/>
        <path id="Path_5" data-name="Path 5" d="M2218.6,295.6a30.131,30.131,0,0,1-30.1-30.1,30.131,30.131,0,0,1-30.1,30.1,30.131,30.131,0,0,1,30.1,30.1A30,30,0,0,1,2218.6,295.6Z" fill="#fff"/>
        <path id="Path_6" data-name="Path 6" d="M443.6,1117.7a30.13,30.13,0,0,1-30.1-30.1,30.13,30.13,0,0,1-30.1,30.1,30.13,30.13,0,0,1,30.1,30.1A30.13,30.13,0,0,1,443.6,1117.7Z" fill="#fff"/>
      </g>
      <g id="Group_6" data-name="Group 6" opacity="0.7">
        <path id="Path_7" data-name="Path 7" d="M2800,532A1656.669,1656.669,0,0,0,2268,0H532A1656.671,1656.671,0,0,0,0,532V2268a1656.669,1656.669,0,0,0,532,532H2268a1656.667,1656.667,0,0,0,532-532Z" fill="#fff" opacity="0.01"/>
        <path id="Path_8" data-name="Path 8" d="M2800,904.6c-9.9-27.8-20.6-55.5-32.2-82.8A1487.6,1487.6,0,0,0,1978.2,32.2Q1937.1,14.8,1895.4,0H904.6c-27.8,9.9-55.5,20.6-82.8,32.2A1487.6,1487.6,0,0,0,32.2,821.8Q14.8,862.9,0,904.6v990.7c9.9,27.8,20.6,55.5,32.2,82.8a1487.6,1487.6,0,0,0,789.6,789.6q41.1,17.4,82.8,32.2h990.7c27.8-9.9,55.5-20.6,82.8-32.2a1487.6,1487.6,0,0,0,789.6-789.6q17.4-41.1,32.2-82.8V904.6Z" fill="#fff" opacity="0.02"/>
        <path id="Path_9" data-name="Path 9" d="M1400,77.4A1323.5,1323.5,0,0,1,2618.5,885c68.9,162.9,104.2,336.3,104.2,515a1323.5,1323.5,0,0,1-807.6,1218.5c-162.9,68.9-336.3,104.2-515,104.2A1323.5,1323.5,0,0,1,181.6,1915.1c-68.9-162.9-104.2-336.3-104.2-515A1323.5,1323.5,0,0,1,885,181.6C1047.9,112.7,1221.3,77.4,1400,77.4Z" fill="#fff" opacity="0.02"/>
        <path id="Path_10" data-name="Path 10" d="M1400,239.6A1158.288,1158.288,0,1,1,948.1,331,1154.853,1154.853,0,0,1,1400,239.6Z" fill="#fff" opacity="0.02"/>
        <path id="Path_11" data-name="Path 11" d="M1400,401.8a995.766,995.766,0,1,1-388.8,78.6A993.3,993.3,0,0,1,1400,401.8Z" fill="#fff" opacity="0.03"/>
        <path id="Path_12" data-name="Path 12" d="M1400,564a834.183,834.183,0,1,1-325.6,65.8A832.6,832.6,0,0,1,1400,564Z" fill="#fff" opacity="0.05"/>
        <path id="Path_13" data-name="Path 13" d="M1400,726.2a672.13,672.13,0,1,1-262.4,53A671.4,671.4,0,0,1,1400,726.2Z" fill="#fff" opacity="0.1"/>
      </g>
      <path id="Path_14" data-name="Path 14" d="M2663.5,1444.6H2491c0-128-103.8-231.8-231.8-231.8a231.615,231.615,0,0,0-190.3,99.5,200.9,200.9,0,0,0-94.6-60.2c-12.7-124-117.4-220.8-244.8-220.8-125.4,0-228.9,93.8-244.2,215-96.7,14.2-171,97.6-171,198.3H1173.2a39.519,39.519,0,0,0-39.5,39.5h0a39.519,39.519,0,0,0,39.5,39.5H2663.4a39.519,39.519,0,0,0,39.5-39.5h0A39.37,39.37,0,0,0,2663.5,1444.6Z" fill="url(#linear-gradient)"/>
      <g id="Group_20" data-name="Group 20">
        <circle id="Ellipse_108" data-name="Ellipse 108" cx="673.8" cy="673.8" r="673.8" transform="translate(726.2 726.2)" fill="url(#linear-gradient-2)"/>
        <g id="Group_8" data-name="Group 8">
          <circle id="Ellipse_109" data-name="Ellipse 109" cx="171.3" cy="171.3" r="171.3" transform="translate(958.9 894.4)" opacity="0.1"/>
          <g id="Group_7" data-name="Group 7" opacity="0.1">
            <path id="Path_15" data-name="Path 15" d="M1025.4,960.8c66.9-66.9,168.1-74.2,226-16.2a171.261,171.261,0,1,0-242.2,242.2C951.2,1128.9,958.5,1027.7,1025.4,960.8Z"/>
          </g>
        </g>
        <g id="Group_10" data-name="Group 10">
          <circle id="Ellipse_110" data-name="Ellipse 110" cx="94.2" cy="94.2" r="94.2" transform="translate(1429.2 1321.3)" opacity="0.1"/>
          <g id="Group_9" data-name="Group 9" opacity="0.1">
            <path id="Path_16" data-name="Path 16" d="M1465.7,1357.8c36.8-36.8,92.5-40.8,124.3-8.9a94.257,94.257,0,0,0-133.3,133.3C1424.9,1450.3,1428.9,1394.6,1465.7,1357.8Z"/>
          </g>
        </g>
        <g id="Group_12" data-name="Group 12">
          <circle id="Ellipse_111" data-name="Ellipse 111" cx="56.5" cy="56.5" r="56.5" transform="translate(1533.5 901.1)" opacity="0.1"/>
          <g id="Group_11" data-name="Group 11" opacity="0.1">
            <path id="Path_17" data-name="Path 17" d="M1555.4,923c22.1-22.1,55.5-24.5,74.6-5.4a56.5,56.5,0,0,0-79.9,79.9C1531,978.5,1533.4,945.1,1555.4,923Z"/>
          </g>
        </g>
        <g id="Group_14" data-name="Group 14">
          <circle id="Ellipse_112" data-name="Ellipse 112" cx="94.2" cy="94.2" r="94.2" transform="translate(1749.7 1477.9)" opacity="0.1"/>
          <g id="Group_13" data-name="Group 13" opacity="0.1">
            <path id="Path_18" data-name="Path 18" d="M1786.2,1514.4c36.8-36.8,92.5-40.8,124.3-8.9a94.257,94.257,0,0,0-133.3,133.3C1745.4,1606.8,1749.4,1551.2,1786.2,1514.4Z"/>
          </g>
        </g>
        <g id="Group_16" data-name="Group 16">
          <circle id="Ellipse_113" data-name="Ellipse 113" cx="123.7" cy="123.7" r="123.7" transform="translate(918.6 1448.4)" opacity="0.1"/>
          <g id="Group_15" data-name="Group 15" opacity="0.1">
            <path id="Path_19" data-name="Path 19" d="M966.5,1496.3c48.3-48.3,121.4-53.6,163.2-11.7a123.744,123.744,0,0,0-175,175C913,1617.7,918.2,1544.6,966.5,1496.3Z"/>
          </g>
        </g>
        <g id="Group_19" data-name="Group 19">
          <g id="Group_18" data-name="Group 18">
            <circle id="Ellipse_114" data-name="Ellipse 114" cx="123.7" cy="123.7" r="123.7" transform="translate(1323.6 1753.3)" opacity="0.1"/>
            <g id="Group_17" data-name="Group 17" opacity="0.1">
              <path id="Path_20" data-name="Path 20" d="M1371.5,1801.2c48.3-48.3,121.4-53.6,163.2-11.7a123.744,123.744,0,0,0-175,175C1318,1922.6,1323.2,1849.5,1371.5,1801.2Z"/>
            </g>
          </g>
        </g>
        <path id="Path_21" data-name="Path 21" d="M1876.5,923.5c128.3,128.3,132.9,346.1,31.7,555.6a107.252,107.252,0,0,1,15.6,13.1,113,113,0,0,1-139.3,176c-17.5,20.7-36,40.9-55.7,60.6a956.243,956.243,0,0,1-142.4,117.6,140.645,140.645,0,0,1,3.3,30.6c0,78.5-63.9,142.4-142.4,142.4a142.261,142.261,0,0,1-114.6-58c-159.6,39.1-310.7,13.5-409.1-85,263.1,263.1,689.8,263.1,952.9,0S2139.6,1186.7,1876.5,923.5Z" opacity="0.1"/>
      </g>
      <path id="Path_22" data-name="Path 22" d="M204.8,882.3H349.6A194.621,194.621,0,0,1,704,771.2a168.442,168.442,0,0,1,79.4-50.5C794,616.5,882,535.3,988.9,535.3a206.6,206.6,0,0,1,205,180.5c81.2,11.9,143.6,81.9,143.6,166.4h118.4a33.075,33.075,0,0,1,33.1,33.1h0a33.075,33.075,0,0,1-33.1,33.1H204.8a33.075,33.075,0,0,1-33.1-33.1h0A33.054,33.054,0,0,1,204.8,882.3Z" fill="url(#linear-gradient-3)"/>
      <path id="Path_23" data-name="Path 23" d="M2245.2,2285.1H2129.7c0-160.9-130.4-291.4-291.4-291.4a290.532,290.532,0,0,0-202.2,81.6,236.708,236.708,0,0,0-82.5-27.2c-11-152.3-138-272.4-293.1-272.4-162.3,0-293.8,131.6-293.8,293.8a295.032,295.032,0,0,0,3.8,47.3,167.917,167.917,0,0,0-86.6,30.4,217.353,217.353,0,0,0-168.5-79.8c-120.2,0-217.7,97.5-217.7,217.7h-149a39.1,39.1,0,0,0,0,78.2H2245.1a39.1,39.1,0,0,0,.1-78.2Z" fill="url(#linear-gradient-4)"/>
    </g>
  </g>
</svg>
